<?xml version="1.0" encoding="UTF-8" standalone="no" ?>
<!DOCTYPE svg PUBLIC "-//W3C//DTD SVG 1.1//EN" "http://www.w3.org/Graphics/SVG/1.1/DTD/svg11.dtd">
<svg xmlns="http://www.w3.org/2000/svg" xmlns:xlink="http://www.w3.org/1999/xlink" version="1.1" width="1080" height="1080" viewBox="0 0 1080 1080" xml:space="preserve">
<desc>Created with Fabric.js 5.2.4</desc>
<defs>
</defs>
<g transform="matrix(1 0 0 1 540 540)" id="f3928b08-6469-4eb3-af13-268f7f9eb39a"  >
<rect style="stroke: none; stroke-width: 1; stroke-dasharray: none; stroke-linecap: butt; stroke-dashoffset: 0; stroke-linejoin: miter; stroke-miterlimit: 4; fill: rgb(255,255,255); fill-rule: nonzero; opacity: 1; visibility: hidden;" vector-effect="non-scaling-stroke"  x="-540" y="-540" rx="0" ry="0" width="1080" height="1080" />
</g>
<g transform="matrix(1 0 0 1 540 540)" id="fd077ead-8dcb-4273-a364-234592f950e6"  >
</g>
<g transform="matrix(1 0 0 1 540 540)"  >
<rect style="stroke: none; stroke-width: 1; stroke-dasharray: none; stroke-linecap: butt; stroke-dashoffset: 0; stroke-linejoin: miter; stroke-miterlimit: 4; fill: rgb(255,255,255); fill-rule: nonzero; opacity: 1; visibility: hidden;" vector-effect="non-scaling-stroke"  x="-540" y="-540" rx="0" ry="0" width="1080" height="1080" />
</g>
<g transform="matrix(0.13 0 0 -0.13 538.59 499.8)"  >
<path style="stroke: rgb(255,0,0); stroke-width: 1; stroke-dasharray: none; stroke-linecap: butt; stroke-dashoffset: 0; stroke-linejoin: miter; stroke-miterlimit: 4; fill: rgb(255,0,0); fill-rule: nonzero; opacity: 1;" vector-effect="non-scaling-stroke"  transform=" translate(-2488.81, -2661.23)" d="M 2476 2922 C 2473 2920 2452 2916 2428 2915 C 2404 2913 2378 2910 2370 2907 C 2362 2904 2342 2899 2327 2895 C 2245 2877 2030 2717 2030 2673 C 2030 2666 2048 2651 2069 2640 L 2109 2620 L 2163 2674 C 2250 2761 2358 2807 2498 2816 C 2553 2820 2560 2818 2560 2802 C 2560 2790 2543 2776 2513 2761 C 2486 2748 2446 2725 2422 2709 C 2398 2693 2376 2680 2372 2680 C 2367 2680 2333 2661 2294 2637 C 2256 2613 2216 2591 2206 2587 C 2182 2577 2194 2563 2247 2538 L 2293 2516 L 2349 2546 C 2380 2562 2474 2616 2559 2665 L 2712 2754 L 2748 2733 C 2768 2722 2785 2709 2787 2704 C 2791 2692 2600 2573 2475 2510 C 2453 2499 2425 2482 2412 2472 L 2390 2455 L 2442 2426 L 2495 2398 L 2620 2470 C 2768 2556 2784 2565 2873 2615 C 2911 2636 2944 2659 2947 2666 C 2955 2688 2884 2767 2821 2807 C 2790 2827 2753 2851 2738 2861 C 2700 2887 2489 2936 2476 2922 z" stroke-linecap="round" />
</g>
<g transform="matrix(0.13 0 0 -0.13 501.24 561.27)"  >
<path style="stroke: rgb(255,5,5); stroke-width: 1; stroke-dasharray: none; stroke-linecap: butt; stroke-dashoffset: 0; stroke-linejoin: miter; stroke-miterlimit: 4; fill: rgb(255,0,0); fill-rule: nonzero; opacity: 1;" vector-effect="non-scaling-stroke"  transform=" translate(-2208.67, -2200.23)" d="M 1984 2564 C 1976 2544 1970 2521 1972 2513 C 1974 2504 2062 2448 2168 2387 L 2360 2277 L 2360 2098 L 2360 1919 L 2338 1926 C 2240 1957 2089 2116 2064 2214 C 2061 2227 2044 2244 2027 2253 C 2009 2262 1985 2277 1973 2286 C 1937 2312 1935 2284 1965 2199 C 2033 2003 2144 1893 2346 1820 C 2402 1800 2478 1795 2473 1813 C 2471 1817 2470 1936 2470 2078 L 2470 2335 L 2442 2351 C 2427 2360 2339 2411 2245 2465 C 2152 2519 2063 2571 2048 2581 C 2011 2608 2001 2605 1984 2564 z" stroke-linecap="round" />
</g>
<g transform="matrix(0.13 0 0 -0.13 578.39 561.86)"  >
<path style="stroke: rgb(255,0,0); stroke-width: 1; stroke-dasharray: none; stroke-linecap: butt; stroke-dashoffset: 0; stroke-linejoin: miter; stroke-miterlimit: 4; fill: rgb(255,0,0); fill-rule: nonzero; opacity: 1;" vector-effect="non-scaling-stroke"  transform=" translate(-2787.35, -2195.8)" d="M 2955 2584 C 2937 2571 2823 2504 2657 2410 C 2623 2391 2578 2364 2558 2351 L 2520 2328 L 2520 2156 C 2520 2061 2523 1980 2526 1977 C 2530 1973 2545 1979 2559 1989 C 2608 2023 2888 2180 2899 2180 C 2905 2180 2910 2175 2910 2168 C 2910 2150 2848 2058 2815 2027 C 2761 1977 2653 1920 2588 1907 L 2525 1894 L 2525 1845 L 2525 1795 L 2564 1798 C 2632 1804 2760 1860 2842 1918 C 2920 1973 3005 2106 3031 2210 C 3038 2240 3047 2270 3050 2275 C 3058 2286 3055 2378 3047 2386 C 3043 2390 2810 2261 2673 2178 L 2640 2158 L 2640 2218 C 2640 2285 2633 2278 2770 2353 C 2800 2370 2848 2398 2875 2415 C 2903 2433 2942 2455 2962 2464 C 3022 2493 3032 2510 3017 2556 C 3001 2599 2985 2607 2955 2584 z" stroke-linecap="round" />
</g>
</svg>